<svg xmlns="http://www.w3.org/2000/svg" viewBox="0 0 538.41 253.79"><defs><style>.cls-1,.cls-3,.cls-4{fill:#fff;}.cls-2{fill:none;}.cls-3,.cls-4{stroke:#000;stroke-miterlimit:10;}.cls-3{stroke-width:2.13px;}.cls-4{stroke-width:5.67px;}</style></defs><title>Recurso 1</title><g id="Capa_2" data-name="Capa 2"><g id="Header"><g id="Capa_3" data-name="Capa 3"><path class="cls-1" d="M117.15,253.79c7.53-1.42,13.16-7,18-11.79,3.35-3.35,10.71-13.3,10-18.26,13.92-4.39,24.79-14,29.3-28,.76-2.34.77-2.86,3.12-3.38A41.2,41.2,0,0,0,187.2,189a27.13,27.13,0,0,0,7.3-5.11c5.73-5.88,5.82-4.79,9.8-13.62,3.55-7.87-.12-12.59,11.34-14.27,14-2,50.5-7.68,62.94-14.86,4.89-2.82,8.7-8.1,14.3-9.56,5.8-1.51,16.66-1.3,22.68-1.87,11.93-1.15,24.09-1.42,34.84-6.15,15.29-6.72,28-2.15,44-7.93,18.11-6.56,37.66-10.26,56.14-14.88,7-1.75,33.43-1.78,27-15.94l4-8.28c2.42-3.68,6.5-5.64,5.34-10.82-1-4.53-9.48-10-13.61-13.14-6.2-4.72-10.66-6.65-18.39-6.73S439.62,49,432,49.13c-11,.25-21.91-3.49-32.92-4.16-11.84-.71-23.67-1.23-35.42-3.07-13.2-2.06-25.53-3-37.51-9.22-5.31-2.75-12.82-2.8-17.47-5.6-5.51-3.32-8.65-9.48-15.22-12.59-13.07-6.19-23-15.19-38.65-8-10.65,4.9-17.29,18-28.88,21-14.05,3.63-28-7.21-42.22.8-6,3.37-6.71,5.15-13.78,6.22-7.67,1.17-8.29,3.16-13.64,6.94-5.84,4.15-10.42,2-17.57,3-6.95.91-9.23,5.69-14.85,7.79-5.14,1.93-10.86.49-15.76,3.53-4.58,2.85-5.18,9.37-9.55,12.26-4.94,3.26-13.73,1-18.66,4.57s-7.19,10.92-10,16.37c-5.41,1.79-10.86.29-16.17,3-6.13,3.07-4.51,8.47-9.22,11.88-3.79,2.75-12.32.46-16.85,1.74-5.48,1.54-14.72,3.15-13.26,8.7C37.79,203,117.15,253.79,117.15,253.79Z"/><path d="M13.33,115.26A18.25,18.25,0,0,1,19,109.19a30.08,30.08,0,0,1,7.52-3.76,12.52,12.52,0,0,1,2.06-.58,17.55,17.55,0,0,1,2.14-.25c1.41-.08,2.82-.06,4.21,0s2.77,0,4.12-.06a12.6,12.6,0,0,0,3.85-.74,6.77,6.77,0,0,0,2.82-2.37,16.27,16.27,0,0,0,1.77-3.54,16.73,16.73,0,0,1,2.06-3.91A10.7,10.7,0,0,1,53.09,91a21,21,0,0,1,8.48-2.16,31.94,31.94,0,0,0,7.89-1.24l-.8.69c1.23-2.52,2.28-5.23,3.54-7.91a27.61,27.61,0,0,1,5-7.72,14.47,14.47,0,0,1,1.86-1.6,11.05,11.05,0,0,1,2.26-1.23A20.06,20.06,0,0,1,86,68.66c3-.44,5.9-.52,8.44-1.12a8.75,8.75,0,0,0,3.23-1.38,9.37,9.37,0,0,0,2.3-2.7c1.38-2.2,2.4-5.11,4.75-7.73s6-3.82,9.06-4.28,5.92-.51,8.28-1.21,4.29-2.1,6.63-4a28.11,28.11,0,0,1,4-2.65,17,17,0,0,1,4.81-1.7,29.5,29.5,0,0,1,4.73-.5c1.54-.06,3,0,4.41-.06a12.88,12.88,0,0,0,7-1.6,30.24,30.24,0,0,0,3.17-2.3c1.1-.86,2.21-1.83,3.64-2.79A17.33,17.33,0,0,1,165,32.48a36.17,36.17,0,0,1,4.64-1,23.29,23.29,0,0,0,3.74-.89,14.39,14.39,0,0,0,3.25-1.6c1.12-.7,2.37-1.56,3.66-2.35.65-.41,1.29-.79,2-1.18s1.44-.79,2.2-1.11A26.8,26.8,0,0,1,194,22a44.84,44.84,0,0,1,9.35.56c5.95.9,11.47,2.3,16.61,2.14a19.53,19.53,0,0,0,7.19-1.44,25.72,25.72,0,0,0,6.42-4.05c4.16-3.4,8-7.85,12.83-11.79a37.91,37.91,0,0,1,3.93-2.79,31.36,31.36,0,0,1,4.4-2.23A30.79,30.79,0,0,1,264.34.07a29,29,0,0,1,9.9,1.07A49.31,49.31,0,0,1,283,4.62c2.72,1.34,5.27,2.75,7.79,4.06q1.89,1,3.75,1.89c.56.26,1.42.69,2.18,1.1s1.49.89,2.18,1.38a52.57,52.57,0,0,1,6.95,6.31c1,1,1.93,1.92,2.88,2.71a16.79,16.79,0,0,0,1.4,1.07l.71.46.65.35a37.51,37.51,0,0,0,7.43,2.14,38.65,38.65,0,0,1,9.23,3,64,64,0,0,0,15.39,5.33c5.41,1.2,11.08,1.94,16.84,2.78l4.33.64c1.39.21,2.79.41,4.2.59q4.22.53,8.48.9c5.69.5,11.43.82,17.21,1.15l4.35.25c1.49.08,3.07.23,4.57.4,3,.36,6,.88,8.84,1.4A124.3,124.3,0,0,0,429,44.89c.67,0,1.34,0,2,0h1l.93,0a36.1,36.1,0,0,0,3.88-.45c2.66-.44,5.44-1.1,8.39-1.69a48.58,48.58,0,0,1,9.44-1.08A33.26,33.26,0,0,1,464.37,43a31.92,31.92,0,0,1,8.86,4.47c1.29.89,2.53,1.86,3.6,2.65l3.53,2.6A50.38,50.38,0,0,1,487.5,59a18,18,0,0,1,1.69,2.19,11.11,11.11,0,0,1,1.45,3,10.76,10.76,0,0,1,.35,1.68,11.38,11.38,0,0,1,.11,1.68,10.48,10.48,0,0,1-.66,3.49,15.42,15.42,0,0,1-3.21,4.86,26.2,26.2,0,0,0-2.41,2.85A22.41,22.41,0,0,0,483.09,82c-.52,1.17-1,2.53-1.72,4.09a17.39,17.39,0,0,1-3,4.65,20.45,20.45,0,0,1-4.13,3.37,39.84,39.84,0,0,1-8.69,4.09,87.53,87.53,0,0,1-8.75,2.43c-.74.16-1.4.35-2.19.47l-2.33.38c-1.56.16-3.1.36-4.64.37a82,82,0,0,1-9.06-.35c-3-.28-5.85-.75-8.72-1.13a151.6,151.6,0,0,0-17.23-1.94c5.61-1.82,11.65-2.29,17.46-2.56l8.65-.34a77.08,77.08,0,0,0,8.31-.73c1.36-.19,2.68-.42,4-.67l4-1a80.39,80.39,0,0,0,8-2.3,32.2,32.2,0,0,0,7-3.35,12.88,12.88,0,0,0,2.58-2.12,9.67,9.67,0,0,0,1.64-2.63c.49-1.07,1-2.45,1.6-3.94a29.18,29.18,0,0,1,2.34-4.45,30.29,30.29,0,0,1,3.11-3.85,7.9,7.9,0,0,0,1.62-2.3,2.1,2.1,0,0,0,.14-.76,4.64,4.64,0,0,0,0-.48,3,3,0,0,0-.09-.45,7.12,7.12,0,0,0-1.42-2.1,43.82,43.82,0,0,0-6-5.13L472,56.75c-1.27-.93-2.31-1.74-3.41-2.49A24,24,0,0,0,462,50.92a25.37,25.37,0,0,0-7.39-1,39.34,39.34,0,0,0-7.79,1c-2.73.55-5.59,1.24-8.65,1.76a44.39,44.39,0,0,1-4.75.57l-1.23.06H431c-.79,0-1.58,0-2.35,0a130.3,130.3,0,0,1-17.78-2.44c-2.83-.51-5.6-1-8.33-1.29-1.38-.16-2.69-.27-4.09-.36l-4.33-.26c-5.79-.35-11.61-.7-17.47-1.24q-4.39-.39-8.8-1c-1.47-.2-2.94-.4-4.41-.63l-4.26-.65c-5.7-.85-11.55-1.63-17.44-3a72.43,72.43,0,0,1-17.35-6.1,31.36,31.36,0,0,0-7.28-2.31,42.88,42.88,0,0,1-9.19-2.8A29.73,29.73,0,0,1,300,25.05a44.77,44.77,0,0,0-5.82-5.45,16.93,16.93,0,0,0-1.47-1c-.52-.27-.94-.51-1.7-.87q-2-1-4-2.06c-2.6-1.39-5.1-2.81-7.57-4.06-4.94-2.54-9.79-4.26-14.64-3.93a23.2,23.2,0,0,0-7.23,1.7,23.94,23.94,0,0,0-3.37,1.65,31.81,31.81,0,0,0-3.17,2.21c-4.21,3.28-8,7.67-12.89,11.59a33.13,33.13,0,0,1-8.3,5.06,26.86,26.86,0,0,1-9.78,1.81c-6.5,0-12.31-1.65-17.78-2.54a39.18,39.18,0,0,0-8-.64,20.47,20.47,0,0,0-7.3,1.61c-.57.23-1.13.53-1.69.82s-1.19.66-1.77,1c-1.19.71-2.34,1.47-3.7,2.29a21.15,21.15,0,0,1-4.58,2.13,28.49,28.49,0,0,1-4.72,1,30.82,30.82,0,0,0-3.85.77,11.57,11.57,0,0,0-3.18,1.42c-1,.63-2.1,1.54-3.29,2.45a35.27,35.27,0,0,1-3.93,2.69,16.22,16.22,0,0,1-4.92,1.78,25.89,25.89,0,0,1-4.86.34c-1.52,0-2.93-.07-4.29,0-.68,0-1.34,0-2,.08s-1.33.11-1.9.22a14.92,14.92,0,0,0-6.68,3.2c-1.14.83-2.37,1.78-3.77,2.61a18,18,0,0,1-4.61,2c-3.25.85-6.28.78-8.93,1.13a15,15,0,0,0-3.65.87,10.35,10.35,0,0,0-1.56.79,6.81,6.81,0,0,0-1.27,1c-1.64,1.66-2.72,4.3-4.45,7A13.24,13.24,0,0,1,100,69.45a12.61,12.61,0,0,1-4.75,1.91c-3.14.62-6.07.58-8.81.9a16.56,16.56,0,0,0-3.82.82,7.29,7.29,0,0,0-1.58.79,12.17,12.17,0,0,0-1.46,1.18A24.49,24.49,0,0,0,75,81.73c-1.29,2.52-2.42,5.19-3.82,7.83l-.28.52-.53.17a32.62,32.62,0,0,1-8.6,1.07,18.81,18.81,0,0,0-7.65,1.6,8.52,8.52,0,0,0-2.94,2.26,15,15,0,0,0-1.94,3.39,18.1,18.1,0,0,1-2.12,3.82,9.09,9.09,0,0,1-1.6,1.62,6.53,6.53,0,0,1-2,1.16,14.08,14.08,0,0,1-4.34.68c-1.43,0-2.83,0-4.22-.12-2.78-.12-5.55-.43-8.14.44a30.2,30.2,0,0,0-7.53,3.34A18.24,18.24,0,0,0,13.33,115.26Z"/><path d="M477.47,84.79a9.75,9.75,0,0,1,1.32,4.77,7.36,7.36,0,0,1-2,4.73,14.71,14.71,0,0,1-4.11,3.09A31.64,31.64,0,0,1,468,99.32a70.23,70.23,0,0,1-9.73,2.33c-1.63.29-3.27.52-4.89.74s-3.16.46-4.79.73c-3.22.53-6.43,1.07-9.61,1.66a79.33,79.33,0,0,0-9.13,2.14,70.79,70.79,0,0,0-8.55,3.8c-3,1.43-5.95,2.89-9,4.24a74.43,74.43,0,0,1-9.71,3.45c-3.33.94-6.58,1.59-9.76,2.3l-4.71,1A37.9,37.9,0,0,0,384,123c-1.34.48-2.66,1.06-4.1,1.72s-3,1.4-4.62,2.07c-.82.34-1.65.67-2.48,1-.42.16-.84.3-1.26.44l-.63.22-.88.24a38.15,38.15,0,0,1-5.65.84c-3.47.29-6.75.4-10,.55s-6.45.3-9.53.57c-1.54.14-3,.31-4.45.55a16.88,16.88,0,0,0-3.47.88l.35-.16a48,48,0,0,1-15.49,4.45c-5,.71-9.84,1-14.16,1.64l-1,.14c-.39.05-.78.08-1.17.12a22.73,22.73,0,0,1-2.33.06,29.45,29.45,0,0,1-4.36-.42,39.31,39.31,0,0,0-6-.89,2.94,2.94,0,0,0-1.23.28,4,4,0,0,0-.65.38c-.12.08-.24.19-.37.29l-.68.56a61,61,0,0,1-6.33,4.67c-8.73,5.64-18.19,9.28-27.72,12a177.38,177.38,0,0,1-29,5.61c-4.88.54-9.77.92-14.68,1.1l-1.85,0H210a4.54,4.54,0,0,0,2.11-.69,3.8,3.8,0,0,0,.54-.39c.12-.1.25-.24.33-.31a3.06,3.06,0,0,0,.42-.57c0-.07,0-.08,0,0A8.75,8.75,0,0,0,213,161l-.49,1.57c-.67,2.23-1.38,4.66-2.24,7.07a48.75,48.75,0,0,1-3.21,7.3,34.14,34.14,0,0,1-5,6.67,44.09,44.09,0,0,1-20.32,12c-.64.17-1.27.32-1.91.47l-1.69.35c-.18,0-.24.06-.19,0a2.18,2.18,0,0,0,.59-.5c.21-.26.23-.39.19-.31a4.37,4.37,0,0,0-.21.54c-.18.51-.42,1.16-.65,1.76l-.72,1.81c-.58,1.18-1,2.39-1.72,3.51a44,44,0,0,1-4.25,6.52A45.47,45.47,0,0,1,159.73,220c-1.06.71-2.19,1.29-3.29,1.92s-2.26,1.14-3.44,1.59a53.73,53.73,0,0,1-7.1,2.46l1.61-2.53a9.35,9.35,0,0,1-.4,3.5,18.78,18.78,0,0,1-1.09,2.82,36.74,36.74,0,0,1-2.88,4.89,51.56,51.56,0,0,1-3.37,4.39,43.93,43.93,0,0,1-3.84,4,51.81,51.81,0,0,1-8.93,6.32,56,56,0,0,1-9.85,4.42,62.42,62.42,0,0,0,9.09-5.59,55.35,55.35,0,0,0,7.86-7,51.29,51.29,0,0,0,5.89-8.53,34.48,34.48,0,0,0,2.17-4.57,14.72,14.72,0,0,0,.65-2.24,5,5,0,0,0,.07-1.82l-.37-1.79,2-.74c8.56-3.18,16.2-8.57,21.13-15.85a37.09,37.09,0,0,0,3.18-5.71c.49-1,.81-2,1.23-3l.49-1.56c.17-.52.32-1,.5-1.63a10.45,10.45,0,0,1,.39-1.15,6.63,6.63,0,0,1,1.08-1.86,6,6,0,0,1,2-1.54,9.11,9.11,0,0,1,1.5-.56l1.8-.49c.52-.15,1-.3,1.55-.47a37.2,37.2,0,0,0,15.86-10.35,24.63,24.63,0,0,0,3.37-4.93,38.79,38.79,0,0,0,2.35-5.9c.67-2.11,1.23-4.3,1.85-6.67l.52-1.86a19.53,19.53,0,0,1,.82-2.29,7.24,7.24,0,0,1,.42-.84,6.57,6.57,0,0,1,.94-1.29,5.7,5.7,0,0,1,3.74-1.83l.62,0,1.74-.1c4.63-.28,9.27-.73,13.88-1.34s9.2-1.4,13.74-2.34,9-2,13.43-3.37c8.78-2.65,17.33-6.06,24.66-10.84a50.49,50.49,0,0,0,5.18-3.86l.71-.58c.33-.28.66-.55,1-.82a15,15,0,0,1,2.42-1.44,14.09,14.09,0,0,1,5.7-1.36,22.28,22.28,0,0,1,4.74.43c1.33.24,2.45.48,3.45.65a19.49,19.49,0,0,0,2.77.29,10.36,10.36,0,0,0,1.25,0c.21,0,.42,0,.62-.06l.76-.1c5.14-.73,9.86-.91,14.34-1.49a38.31,38.31,0,0,0,12-3.11l.25-.13.1,0a26.12,26.12,0,0,1,6-1.53c1.82-.28,3.56-.44,5.27-.58,3.42-.25,6.74-.35,10-.45s6.51-.17,9.55-.39a30.4,30.4,0,0,0,4-.49l.3-.08.54-.16,1.07-.32c.7-.23,1.41-.47,2.11-.72,1.41-.51,2.83-1.1,4.39-1.73s3.26-1.3,5-1.83a40.9,40.9,0,0,1,5.32-1.24l4.9-.77c3.23-.5,6.42-1,9.44-1.55a69.79,69.79,0,0,0,8.95-2.41c3-1,6-2.09,9-3.29,1.51-.6,3-1.22,4.62-1.82a42.5,42.5,0,0,1,5-1.6,66.73,66.73,0,0,1,10.08-1.49c3.3-.29,6.56-.53,9.83-.75,1.61-.11,3.31-.23,4.93-.3l4.84-.27A66.66,66.66,0,0,0,467.4,97a29.93,29.93,0,0,0,4.53-1.34,13.68,13.68,0,0,0,4-2.3,6.44,6.44,0,0,0,2.2-3.9A9.77,9.77,0,0,0,477.47,84.79Z"/><path d="M165,89a12.74,12.74,0,0,0-5.52,1.32c-.89.35-1.72.83-2.58,1.25s-1.66.92-2.47,1.45a85.6,85.6,0,0,0-9.31,6.65c-1.48,1.19-2.93,2.44-4.31,3.71a26.47,26.47,0,0,0-3.67,4.06,24,24,0,0,0-4.25,9.76,13.76,13.76,0,0,0-.13,4.93,8.79,8.79,0,0,0,2.07,4.07,68.06,68.06,0,0,0,8.13,7.43,72.36,72.36,0,0,0,19.14,11.05c.84.37,1.73.64,2.6.94s1.74.62,2.63.89c1.79.47,3.54,1.07,5.36,1.44l2.72.64,2.74.53c1.82.39,3.68.63,5.53.93a206.13,206.13,0,0,0,22.62,1.7l2.86.07,2.78,0c1.85.05,3.71-.1,5.57-.13,3.71-.23,7.42-.56,11.11-1.12a122,122,0,0,0,21.72-5.11,96,96,0,0,0,20-9.23c1.51-1,3.08-1.94,4.5-3.06.73-.55,1.45-1.06,2.18-1.64l2.23-1.8A27.85,27.85,0,0,1,284.9,126a17.8,17.8,0,0,1,7.18-1.6,80.73,80.73,0,0,1,12.15.95A56.79,56.79,0,0,0,315,126a41,41,0,0,0,10.34-2.19c3.47-1.15,6.95-2.65,10.64-4.08a58,58,0,0,1,11.7-3.43,31.63,31.63,0,0,1,6.33-.42c2.06,0,4,.26,6,.46a46.73,46.73,0,0,0,11,.31,86.53,86.53,0,0,0,11-2.19c1.85-.46,3.69-1,5.54-1.47l2.77-.79c.95-.25,1.93-.55,2.89-.74,3.86-.86,7.68-1.45,11.5-2s7.6-1.18,11.33-2a33.23,33.23,0,0,0,10.72-4c-3,2.47-6.71,3.94-10.38,5.19s-7.46,2.16-11.21,3.09-7.51,1.79-11.1,2.89c-.92.26-1.76.59-2.65.89l-2.73,1c-1.82.67-3.65,1.32-5.51,1.93a86.58,86.58,0,0,1-11.47,3,30.25,30.25,0,0,1-3.09.43c-1,.1-2.07.13-3.09.14-2,0-4-.07-5.93-.15-3.85-.16-7.45-.32-10.75.43a52.68,52.68,0,0,0-10.31,3.54c-3.44,1.5-7,3.21-10.76,4.66a47.51,47.51,0,0,1-12.15,2.9c-8.56.73-16.42-1.37-23.16-1a10.41,10.41,0,0,0-4,.93,21.36,21.36,0,0,0-3.88,2.79L282.31,138c-.77.63-1.61,1.24-2.42,1.87-1.6,1.28-3.32,2.35-5,3.5a102.93,102.93,0,0,1-21.81,10.18,128.48,128.48,0,0,1-23.27,5.36c-3.94.54-7.92.84-11.9,1-2,0-4,.14-6,.06l-3-.07-2.92-.15a210,210,0,0,1-23.42-2.38,95.64,95.64,0,0,1-23-6.6c-1.83-.84-3.67-1.65-5.42-2.64-.88-.48-1.79-.91-2.64-1.45L149,145.16c-.87-.51-1.68-1.09-2.5-1.67L144,141.75l-2.33-1.9c-.77-.64-1.57-1.24-2.28-1.94-1.45-1.37-3-2.71-4.3-4.1a42.32,42.32,0,0,1-4.1-4.6,13.68,13.68,0,0,1-2.69-6.32,17.33,17.33,0,0,1,.54-6.54,27.82,27.82,0,0,1,5.73-10.89,29,29,0,0,1,4.4-4.2c1.55-1.23,3.14-2.36,4.77-3.44a87.65,87.65,0,0,1,10.09-5.89c.87-.44,1.79-.8,2.67-1.2s1.81-.73,2.76-1A12.15,12.15,0,0,1,165,89Z"/><path class="cls-2" d="M462.23,49.36c4.86-.93,13.34,3.84,10.82,9.41-1.44,3.18-9.86,4.35-13,5.49C451,67.62,440.17,69.18,432,73.49c4.24.39,7.73-1.52,11.8-2.16,4.44-.7,9.39,0,14.05-.67,7.85-1.14,20-5.73,27.8-1.73-2.55-13.09-13.9-21.7-26.23-23.42-5.24-.74-12.93-2.66-18.49-.59s-8.29,6.78-14.63,8c6.63-.15,12.9-1.06,19.57-1.59-1,0-3.9-.72-5.54-.69,5.2-6.5,13.83-3.1,21.18-1.28"/><path d="M421.22,49.23c1.93.57,4.28.36,6.24.66A30.28,30.28,0,0,0,442.18,48c2-.74,4.14-1.77,6.15-2.62a40.78,40.78,0,0,1,8-2.54A22,22,0,0,1,464,43a34.28,34.28,0,0,1,15.42,5.65A43.47,43.47,0,0,1,485.26,53a18.39,18.39,0,0,1,1.83,2.71,30.62,30.62,0,0,1,3.2,5.24c.65,1.49,1.93,4.35,1.35,5.94-.43,1.16-1.36,1.42-2.43,1.74-2.7.81-5.65.21-8.47.61-5.83.82-12,.5-17.8,1.36-3.91.57-8.16.71-11.89,1.7a25,25,0,0,1-5.52,1c-1.63.06-3.94.57-5.43-.16-.14-2,5.65-2.73,7.12-2.87,3-.28,6.06.3,9-.3s5.26-1.3,7.94-2.1a74.44,74.44,0,0,0,7.17-2c2.41-1,5.11-1.76,6.63-4,1.18-1.73,3.23-3.13,2.25-5.42-.8-1.88-3.6-3.16-5.42-3.88-5-2-9.8-3.45-15.4-3.45-2.4,0-5.16-.41-7.21.79-1.28.75-5.67,2.93-5.27,4.37,1.25.26,2.77-.39,4.1-.38h4.38c2.11,0,4.88-.51,6.86.41a4,4,0,0,1,2.08,2.82c0,1.19-1.31,1.7-2.2,2.19-3.23,1.77-8.27.62-11.82.3a33,33,0,0,1-4.22-.44c-1.15-.27-2.25-.84-3.44-1a58.84,58.84,0,0,1-8.2-1.75,31.12,31.12,0,0,1-7.39-3.3c-1.91-1.22-3.15-3.88-5.81-3.59"/><path d="M421.22,49.23a19.28,19.28,0,0,0,4.22.46c1.43,0,2.83.31,4.24.36a28.74,28.74,0,0,0,8.41-.93c5.55-1.25,10.35-4.56,15.93-6a21.27,21.27,0,0,1,4.22-.81,23.74,23.74,0,0,1,4.3.19,47.13,47.13,0,0,1,8.38,1.68,30.73,30.73,0,0,1,7.79,3.58c2.31,1.66,4.81,3,6.88,5.12a9.11,9.11,0,0,1,1.24,1.81c.34.61.76,1.15,1.17,1.75a29,29,0,0,1,2.27,3.65,26.89,26.89,0,0,1,1.59,4,6.39,6.39,0,0,1,.26,2.24,2.65,2.65,0,0,1-1.24,2,8.28,8.28,0,0,1-2.1.75,12.45,12.45,0,0,1-2.17.3c-1.45.09-2.87,0-4.27.07s-2.78.34-4.21.44-2.84.22-4.26.29c-2.84.14-5.68.23-8.48.51-1.4.13-2.79.37-4.22.53l-4.23.48c-1.41.16-2.8.35-4.17.63s-2.72.71-4.15,1c-.71.13-1.43.25-2.15.31s-1.42.08-2.12.16a19.29,19.29,0,0,1-2.17.14,5.36,5.36,0,0,1-2.29-.42l-.25-.12,0-.28a1.83,1.83,0,0,1,.8-1.51,5.75,5.75,0,0,1,1.27-.71,16.34,16.34,0,0,1,2.6-.75,23.24,23.24,0,0,1,5.32-.51,50.06,50.06,0,0,0,5.2,0,18.79,18.79,0,0,0,2.52-.45c.85-.19,1.69-.4,2.54-.63,1.69-.44,3.33-1,5.05-1.43s3.43-.78,5.06-1.31c.81-.25,1.61-.6,2.43-.91s1.62-.64,2.37-1a8.51,8.51,0,0,0,2.05-1.42,6,6,0,0,0,.79-.94c.27-.38.56-.72.84-1.06a7.91,7.91,0,0,0,1.4-2,2.51,2.51,0,0,0-.21-2.18,8.93,8.93,0,0,0-4-2.92,52.49,52.49,0,0,0-9.89-3.24,33.1,33.1,0,0,0-5.15-.64L458,49.42c-.88,0-1.74-.07-2.6,0a7.41,7.41,0,0,0-2.45.47,7.13,7.13,0,0,0-1.13.58l-1.14.63a20.26,20.26,0,0,0-2.18,1.4,7.47,7.47,0,0,0-.94.82,1.19,1.19,0,0,0-.39.88l-.25-.23c1.22.23,2.56-.36,4-.38h4.11c1.36,0,2.72-.15,4.12-.13a9.45,9.45,0,0,1,2.1.23,5.31,5.31,0,0,1,1,.34,3.57,3.57,0,0,1,.92.63,4.73,4.73,0,0,1,1.24,1.79,1.84,1.84,0,0,1-.63,2.13A9.73,9.73,0,0,1,462,59.64a7.71,7.71,0,0,1-2,.66c-2.79.5-5.56,0-8.26-.32-1.36-.19-2.71-.25-4.09-.38a11.18,11.18,0,0,1-2.05-.37c-.67-.21-1.31-.47-1.95-.68a12.89,12.89,0,0,0-2-.42l-2-.36c-1.35-.26-2.69-.56-4-.93A33.86,33.86,0,0,1,428,53.72a10.24,10.24,0,0,1-1.71-1.15c-.52-.45-1-1-1.47-1.43a6.75,6.75,0,0,0-1.62-1.25,3.49,3.49,0,0,0-2-.4,3.52,3.52,0,0,1,2,.37,6.88,6.88,0,0,1,1.64,1.24c.5.47,1,1,1.5,1.41a9.88,9.88,0,0,0,1.71,1.12,33,33,0,0,0,7.61,3c1.32.35,2.66.63,4,.87l2,.34a12.14,12.14,0,0,1,2,.4c.67.2,1.3.46,1.95.64a10.1,10.1,0,0,0,2,.34c1.35.1,2.74.15,4.1.33,2.72.29,5.47.74,8.11.25a7.55,7.55,0,0,0,1.88-.62,9.18,9.18,0,0,0,1.71-1,1.31,1.31,0,0,0,.46-1.54,4.08,4.08,0,0,0-1.1-1.55,3,3,0,0,0-.77-.53,5,5,0,0,0-.92-.31,8.7,8.7,0,0,0-2-.2c-1.34,0-2.71.16-4.11.15H451c-1.28,0-2.6.64-4.14.39l-.2,0,0-.19a1.75,1.75,0,0,1,.53-1.48,8,8,0,0,1,1-.91,19,19,0,0,1,2.24-1.45l1.14-.65a8.55,8.55,0,0,1,1.21-.62,8.23,8.23,0,0,1,2.67-.53c.89-.05,1.78,0,2.65,0l2.63.05a33.4,33.4,0,0,1,5.27.63A52.93,52.93,0,0,1,476,52.64a15.56,15.56,0,0,1,2.37,1.28,6.34,6.34,0,0,1,2,1.95,4,4,0,0,1,.47,1.4,3.1,3.1,0,0,1-.19,1.48A8.51,8.51,0,0,1,479.1,61c-.28.34-.55.67-.78,1a7,7,0,0,1-.9,1.06,9.1,9.1,0,0,1-2.24,1.58c-.81.41-1.63.75-2.45,1.07s-1.61.67-2.48.94c-1.7.56-3.43.9-5.1,1.35s-3.35,1-5,1.46c-.85.23-1.71.45-2.57.64a18.4,18.4,0,0,1-2.64.49,49.45,49.45,0,0,1-5.3,0,23.18,23.18,0,0,0-5.11.49,14.89,14.89,0,0,0-2.44.69c-.73.29-1.52.81-1.47,1.24l-.27-.4a8.32,8.32,0,0,0,3.95.21c.71-.08,1.46-.09,2.12-.15a20.41,20.41,0,0,0,2.06-.29c1.37-.25,2.72-.68,4.15-1s2.83-.46,4.25-.62l4.23-.46c1.39-.15,2.81-.39,4.23-.51,2.85-.28,5.7-.35,8.53-.48,1.41-.06,2.82-.14,4.23-.26s2.79-.38,4.25-.43,2.87,0,4.26,0a12.51,12.51,0,0,0,2-.27,8.09,8.09,0,0,0,1.89-.66,1.89,1.89,0,0,0,.91-1.48,5.87,5.87,0,0,0-.23-2,26.46,26.46,0,0,0-1.52-3.9,28.28,28.28,0,0,0-2.21-3.58c-.39-.58-.83-1.16-1.18-1.8a8.73,8.73,0,0,0-1.15-1.7c-1.93-2-4.46-3.4-6.74-5.05a30.48,30.48,0,0,0-7.63-3.55,46.44,46.44,0,0,0-8.28-1.7,22.74,22.74,0,0,0-4.2-.2,21.86,21.86,0,0,0-4.13.75c-5.51,1.31-10.38,4.56-16,5.76a28.73,28.73,0,0,1-8.47.81c-1.42-.06-2.81-.38-4.23-.42A18.74,18.74,0,0,1,421.22,49.23Z"/><path d="M475.22,86.92c3.29-15.46-24.24-3.56-29.39-1.3-11.24,4.93-22.7,9.64-37,7.36-12.78-2-25.49-6.87-38.68-8.19-9.73-1-20.44,4.51-30,6.44-10.52,2.14-21.15,3.66-31.77,5.24A173.38,173.38,0,0,1,259,96.12c-6.71-1-13.39-2.93-20.14-4.29-14.06-2.84-25.87-8.71-40.63-6-10.14,1.84-22.09,3.81-30.37,10.47,5.08,7.79,20.86.33,27.47-1.32,13.4-3.36,29.19-1.58,41.81,4a150,150,0,0,0,18.35,7.18,130.27,130.27,0,0,0,17.08,4.16c28.8,4.45,55.59-3.2,83.25-7.87a227.76,227.76,0,0,1,38.26-3.11c6.23,0,12.38-.71,18.77-.71,4.68,0,9,1.48,13.56,2.42,4,.83,8.15.55,12.24.82,8.2.55,17.77,1.25,25.2-3,4.27-2.45,11.51-9.33,12.05-14"/><path class="cls-3" d="M277.73,36c0,5.82-6.33,10.54-14.15,10.54S249.42,41.86,249.42,36s6.34-10.54,14.16-10.54S277.73,30.21,277.73,36Z"/><path d="M263.6,23.12a18.23,18.23,0,0,1,3.92,8.4c.89,5.08-3.92,14.27-3.92,14.27h-.05s-4.8-9.19-3.91-14.27a18.16,18.16,0,0,1,3.91-8.4"/><path class="cls-1" d="M264.84,29a1.27,1.27,0,1,1-1.26-1.27A1.27,1.27,0,0,1,264.84,29Z"/><path d="M221.73,37a81.45,81.45,0,0,0,9.36.14,16.87,16.87,0,0,0,4.34-.66,3.72,3.72,0,0,0,.8-.39c.25-.18.51-.37.79-.61.54-.46,1.1-1,1.66-1.5a56.66,56.66,0,0,1,7.39-6.25,32.11,32.11,0,0,1,9.07-4.32,32.73,32.73,0,0,1,10.05-1.24,38,38,0,0,1,10,1.51,28.67,28.67,0,0,1,9.24,4.67A24.92,24.92,0,0,1,288.22,32a20.38,20.38,0,0,1,1.59,2.16c.24.38.48.77.7,1.18l.33.62c.12.25.2.4.35.77l.62,1.54-1.06,1.21a19,19,0,0,1-1.36,1.42c-.45.42-.9.82-1.37,1.2a30.21,30.21,0,0,1-2.94,2.1,26.86,26.86,0,0,1-6.57,3,24.76,24.76,0,0,1-7.1,1.08,43.59,43.59,0,0,1-6.86-.41,51.56,51.56,0,0,1-13-3.63A54.77,54.77,0,0,1,240,37.52c2,.88,4,1.72,6.08,2.47s4.12,1.39,6.2,1.95,4.18,1,6.28,1.32a56.1,56.1,0,0,0,6.31.6,45.16,45.16,0,0,0,6.27-.17A22.4,22.4,0,0,0,277,42.43a24.23,24.23,0,0,0,5.23-2.7,22.81,22.81,0,0,0,2.34-1.81c.37-.32.73-.65,1.07-1s.7-.73.9-1l-.43,2.76-.16-.3-.22-.41c-.16-.27-.34-.55-.52-.83-.38-.54-.79-1.08-1.23-1.59a19.87,19.87,0,0,0-3-2.8A24.3,24.3,0,0,0,273.51,29,34.48,34.48,0,0,0,265,27.54a29.45,29.45,0,0,0-16.71,3.72,66.07,66.07,0,0,0-7.6,5.07c-.65.47-1.3,1-2,1.4a9.62,9.62,0,0,1-1.2.64,6.55,6.55,0,0,1-1.39.44,18.35,18.35,0,0,1-5,.06A54.71,54.71,0,0,1,221.73,37Z"/><path d="M302.44,44.4a6.66,6.66,0,0,1,3.14,1.41A4.41,4.41,0,0,1,307,49.19a9.12,9.12,0,0,1-.86,3.52,19.14,19.14,0,0,1-1.76,3.09A28.78,28.78,0,0,1,299.6,61a17.64,17.64,0,0,1-3,2.12c-.27.16-.59.3-.89.44a8.58,8.58,0,0,1-.94.34c-.56.17-1.11.36-1.67.51-9,2.55-18.67,2.23-27.61.08s-17.32-5.16-26-6S222,59.82,213.16,61.41A115.79,115.79,0,0,1,226,57a50.1,50.1,0,0,1,13.7-1.85c9.39.27,18.17,3.18,26.76,5.16a59.31,59.31,0,0,0,25.86.85c.53-.1,1.06-.24,1.59-.36.29-.06.46-.12.66-.17s.42-.16.64-.27a18.41,18.41,0,0,0,2.66-1.58,28,28,0,0,0,4.81-4.3,12,12,0,0,0,3.08-5.42,3.54,3.54,0,0,0-.66-2.85A6.78,6.78,0,0,0,302.44,44.4Z"/><path d="M316.61,46.53A9.81,9.81,0,0,1,323,45.32a23.61,23.61,0,0,1,6.06,1.75c1.84.77,3.53,1.58,5.28,2.3s3.54,1.37,5.62,2.12a11.67,11.67,0,0,1-6.38,1.14A20.8,20.8,0,0,1,327.46,51c-1.89-.79-3.58-1.68-5.28-2.46A32.27,32.27,0,0,0,316.61,46.53Z"/><path d="M47,159.23c5-1.55,12.4-3.14,15.45-8,7.2-11.4-2.53-26.75-12.46-31.75-7.19-3.62-17.19-4.74-24.88-2.22-2.76.9-5.72,2.46-7.31,5a4.42,4.42,0,0,0-.81,1.83,10.29,10.29,0,0,0,.94,2.82c1,3,2.34,5.81,3.51,8.73.39,1,.92,2,1.26,3a18.37,18.37,0,0,0,1.09,3C25,143.9,26,146.15,27,148.49a8.3,8.3,0,0,0,.93,1.83c1.14,1.46,1.46,3.38,2.39,5L33,159.89c.82,1.46,1.39,3.05,2.11,4.54,1.17-.68,2.54-1.11,3.78-1.7A63.51,63.51,0,0,1,47,159.23Z"/><path d="M55.17,111.11c2.15,6.63,7.35,14,14,15.45,9,1.93,16.37-2.69,16.25-12.34-.18-15.47-31.3-26.87-31-5.42"/><path d="M127.6,62.91c-7.75-6-15.68-3.16-16.32.06-1.57,7.88-1.62,11.34,2.83,14.56,4.77,3.45,11.29,6.83,15.61,1.63,2.79-3.36,3.86-10-2.12-16.25"/><path d="M103.68,81.14c-1.9-3.54-9.41-3.79-13.91-3.18-5.26.71-9.93,9.42-6.92,15.47,7.21,14.49,29.16,3.8,20.83-12.29"/><path d="M151.65,54.81c-4.92-6.13-17.55-4.79-15.59,5,1.86,9.28,18.06,7.08,15.85-3.9"/><path d="M162.85,50.78c7.89-.53,17.76-8.8,25.47-11.53,3.66-1.3,27-9.58,24.57-.62A109.17,109.17,0,0,0,185.53,43c-4.26,1.3-19.56,10.52-23.39,8.5"/><path d="M162.85,50.78a22.66,22.66,0,0,0,6.58-2.24c2.08-1,4.09-2.2,6.08-3.43,4-2.41,7.86-5.11,12.43-6.92A101.26,101.26,0,0,1,201.52,34a31.68,31.68,0,0,1,7.31-.83,11.92,11.92,0,0,1,2,.23,5.51,5.51,0,0,1,2.13.94,3.79,3.79,0,0,1,.95,1,3.87,3.87,0,0,1,.49,1.31,4.52,4.52,0,0,1,.06,1.26,9.9,9.9,0,0,1-.21,1.11l-.19,1L213,40q-6.57.3-13.07,1.13a104,104,0,0,0-12.84,2.51,18.91,18.91,0,0,0-3,1c-1,.42-2,.86-3,1.31-2,.89-4,1.82-6.08,2.68s-4.11,1.69-6.25,2.33a22.77,22.77,0,0,1-3.26.79,9.49,9.49,0,0,1-1.68.11,3.34,3.34,0,0,1-1.62-.38,3.27,3.27,0,0,0,1.61.17,8.7,8.7,0,0,0,1.6-.31,24.71,24.71,0,0,0,3.09-1.1c2-.85,4-1.82,5.94-2.84l5.86-3.09c1-.52,2-1,3-1.51.51-.24,1-.47,1.59-.69s1.08-.35,1.63-.54a88.39,88.39,0,0,1,13.06-3,132.67,132.67,0,0,1,13.31-1.32l-1.29,1c0-.2.09-.42.11-.62a2.39,2.39,0,0,0,0-.48.77.77,0,0,0-.36-.59,4.8,4.8,0,0,0-2.55-.64,29.44,29.44,0,0,0-6.63.72,112.14,112.14,0,0,0-13.39,3.67,46.08,46.08,0,0,0-6.27,2.77c-2.07,1.05-4.13,2.18-6.22,3.26a64.7,64.7,0,0,1-6.45,2.94A20.83,20.83,0,0,1,162.85,50.78Z"/><path d="M139.56,170.17a44.09,44.09,0,0,0,8.45,8.32,52.71,52.71,0,0,0,10.08,6.11,72.57,72.57,0,0,0,11,3.76,57.77,57.77,0,0,0,11.59,2l0,.28a25.05,25.05,0,0,1-12.26.5,38.33,38.33,0,0,1-11.44-4.49,54.91,54.91,0,0,1-9.95-7,42.48,42.48,0,0,1-7.79-9.25Z"/><path d="M109,195.14a11.5,11.5,0,0,0,1.34,6,20.22,20.22,0,0,0,3.71,5,43.9,43.9,0,0,0,10,7.41,53.36,53.36,0,0,0,5.67,2.68q2.88,1.18,5.79,2.3c3.89,1.45,7.82,2.81,12.07,3l0,.28a16.33,16.33,0,0,1-6.56.62,33.54,33.54,0,0,1-6.46-1.25,46.17,46.17,0,0,1-11.72-5.72,45.46,45.46,0,0,1-9.94-8.41,21.17,21.17,0,0,1-3.46-5.56,11.68,11.68,0,0,1-.82-6.41Z"/><path d="M128.18,152.46a26.59,26.59,0,0,0-1,4,7.77,7.77,0,0,0,.26,3.77,5.17,5.17,0,0,0,2.42,2.69,18.77,18.77,0,0,0,3.81,1.49,8.8,8.8,0,0,1-4.29-.5,5.44,5.44,0,0,1-3.26-3.18,7.21,7.21,0,0,1,0-4.5A10.24,10.24,0,0,1,128.18,152.46Z"/><path d="M116.17,158.45a23,23,0,0,0-1.71,4.73,5.9,5.9,0,0,0,.46,4.45,6.81,6.81,0,0,0,3.75,2.55,40,40,0,0,0,4.94,1.15,15.33,15.33,0,0,1-5.23-.08,9.18,9.18,0,0,1-2.56-.93,6,6,0,0,1-2.11-1.95,5.5,5.5,0,0,1-.78-2.77,7.84,7.84,0,0,1,.47-2.71A12,12,0,0,1,116.17,158.45Z"/><path d="M101.29,168.14a24.59,24.59,0,0,0-.18,4.67,8.55,8.55,0,0,0,1.27,4.14,6.67,6.67,0,0,0,3.38,2.53,21.25,21.25,0,0,0,4.55,1,10.63,10.63,0,0,1-4.86.06,6.84,6.84,0,0,1-4.25-2.8,8.14,8.14,0,0,1-1.19-4.92A11.38,11.38,0,0,1,101.29,168.14Z"/><path d="M87.47,180.51a16.24,16.24,0,0,0-.45,3.58,5.73,5.73,0,0,0,.86,3.1,6.91,6.91,0,0,0,2.48,2.13c.52.26,1.07.49,1.62.74s1.15.4,1.74.66c-.62.05-1.26,0-1.9,0a14.14,14.14,0,0,1-1.89-.4A6.24,6.24,0,0,1,86.69,188a5.53,5.53,0,0,1-.76-4A7.28,7.28,0,0,1,87.47,180.51Z"/><path d="M76.85,193.65a35.78,35.78,0,0,0,.5,3.85A12.28,12.28,0,0,0,78.52,201,6.16,6.16,0,0,0,81,203.41a11.69,11.69,0,0,0,3.6,1.13,6.8,6.8,0,0,1-4.06-.12l-.51-.18-.46-.28a4.27,4.27,0,0,1-.88-.63,7,7,0,0,1-.75-.79c-.21-.3-.42-.59-.61-.9a9,9,0,0,1-1-4A10.25,10.25,0,0,1,76.85,193.65Z"/><path d="M68.65,203.74a21.18,21.18,0,0,0,.76,4.58,13.2,13.2,0,0,0,1.92,4,6.38,6.38,0,0,0,.67.88,7.2,7.2,0,0,0,.75.81l.81.78.9.68.45.34c.16.11.33.19.49.3l1,.6c.67.38,1.39.68,2.09,1.1a17.87,17.87,0,0,1-2.36-.46,11.68,11.68,0,0,1-2.25-1,10.46,10.46,0,0,1-3.7-3.27,11,11,0,0,1-1.52-9.41Z"/><path d="M55,189.16a29.72,29.72,0,0,0,2.15,5.24,10.47,10.47,0,0,0,1.65,2.1,11.78,11.78,0,0,0,2.32,1.63,5,5,0,0,1-3-.75,6.73,6.73,0,0,1-2.2-2.27,8.6,8.6,0,0,1-1-2.92A7.36,7.36,0,0,1,55,189.16Z"/><path d="M64.93,176.11a18.58,18.58,0,0,0,.77,7.35,10.7,10.7,0,0,0,1.68,3.16,20.61,20.61,0,0,0,2.56,2.78,8.54,8.54,0,0,1-3.39-2.05,9,9,0,0,1-1.31-1.57,10.55,10.55,0,0,1-.88-1.86,10,10,0,0,1-.51-4A9.25,9.25,0,0,1,64.93,176.11Z"/><path d="M79.56,169.29a28.26,28.26,0,0,0,.74,4.09,11.44,11.44,0,0,0,.66,1.86c.25.63.61,1.22.94,1.93A4.3,4.3,0,0,1,80,175.84a5.1,5.1,0,0,1-1.1-2.08,5.87,5.87,0,0,1-.16-2.32A4.64,4.64,0,0,1,79.56,169.29Z"/><path d="M91.19,158.45a46.94,46.94,0,0,0,.8,5,17.37,17.37,0,0,0,.71,2.33c.27.79.66,1.52,1,2.37a5.62,5.62,0,0,1-2-1.85,7.3,7.3,0,0,1-1.11-2.52,8.37,8.37,0,0,1-.18-2.73A6.52,6.52,0,0,1,91.19,158.45Z"/><path d="M103.42,146.61a15.06,15.06,0,0,0-.22,5.72,9.7,9.7,0,0,0,.86,2.62,24.6,24.6,0,0,0,1.48,2.56,6.6,6.6,0,0,1-2.42-2,6.52,6.52,0,0,1-1.31-2.95,7.39,7.39,0,0,1,.13-3.21A6.45,6.45,0,0,1,103.42,146.61Z"/><path d="M117.15,137a28.69,28.69,0,0,0-1.3,3.62,12,12,0,0,0-.45,3.59,7.27,7.27,0,0,0,.93,3.38,14.92,14.92,0,0,0,2.27,3,7.43,7.43,0,0,1-3.2-2.42,6.62,6.62,0,0,1-1-1.84c-.1-.34-.19-.69-.28-1s-.08-.7-.12-1.05a9,9,0,0,1,.84-4A9.43,9.43,0,0,1,117.15,137Z"/><path d="M130.08,133.86a14.71,14.71,0,0,0-1,5.23,9.63,9.63,0,0,0,.38,2.53c.22.86.59,1.67.93,2.6a6,6,0,0,1-1.95-2.18,6.18,6.18,0,0,1-.77-2.92,6.61,6.61,0,0,1,.6-3A5.83,5.83,0,0,1,130.08,133.86Z"/><path d="M57,163.29a26.07,26.07,0,0,0,.11,5.41,8.29,8.29,0,0,0,.82,2.38,10.56,10.56,0,0,0,1.65,2.15A4.72,4.72,0,0,1,57,171.72,5.79,5.79,0,0,1,55.71,169a7.51,7.51,0,0,1,.1-3A6.9,6.9,0,0,1,57,163.29Z"/><path d="M68.61,153.79a12.56,12.56,0,0,0,.12,5.9,7.51,7.51,0,0,0,1.31,2.5,12.77,12.77,0,0,0,1,1.13c.35.37.75.69,1.12,1.11a8.75,8.75,0,0,1-1.53-.55,6.3,6.3,0,0,1-1.37-.94,6,6,0,0,1-1.87-2.83,6.77,6.77,0,0,1-.15-3.37A6.61,6.61,0,0,1,68.61,153.79Z"/><path d="M77.11,145.55a20.15,20.15,0,0,0,0,5.53,9,9,0,0,0,.78,2.5,16.6,16.6,0,0,0,1.48,2.4,5.6,5.6,0,0,1-2.42-1.81,6.23,6.23,0,0,1-1.24-2.86,7.67,7.67,0,0,1,.14-3.06A6.73,6.73,0,0,1,77.11,145.55Z"/><path d="M86.45,135.45c-.39,1.31-.75,2.58-1,3.85a18.45,18.45,0,0,0-.51,3.79,9.6,9.6,0,0,0,.58,3.61,10.26,10.26,0,0,0,2.26,3.1,6.34,6.34,0,0,1-3.24-2.59,7.91,7.91,0,0,1-1-4.15,11.51,11.51,0,0,1,.87-4.09A12.19,12.19,0,0,1,86.45,135.45Z"/><path d="M97,127a7.33,7.33,0,0,0-1.37,5.25,17,17,0,0,0,.52,2.75c.16.45.28.92.42,1.4a12.44,12.44,0,0,1,.43,1.46,12.43,12.43,0,0,1-1-1.14c-.3-.42-.57-.86-.83-1.31a8.27,8.27,0,0,1-.91-3,6,6,0,0,1,.53-3.19A4.33,4.33,0,0,1,97,127Z"/><path d="M108.73,119.49a12.4,12.4,0,0,0-2.07,2,4.38,4.38,0,0,0-1,2.32,7.08,7.08,0,0,0,.47,2.57l.58,1.32a13.42,13.42,0,0,1,.64,1.37c-.42-.29-.81-.63-1.21-1a12,12,0,0,1-1-1.22,5.52,5.52,0,0,1-.9-3.17,4.33,4.33,0,0,1,1.56-3A5.33,5.33,0,0,1,108.73,119.49Z"/><path d="M118.6,111a12.83,12.83,0,0,0-1,5.86,9.7,9.7,0,0,0,.68,2.81c.15.48.42.91.61,1.39s.52.9.74,1.41a11.24,11.24,0,0,1-1.3-1,7.58,7.58,0,0,1-1-1.29,6.93,6.93,0,0,1-1.11-3.19,7,7,0,0,1,.49-3.34A6.46,6.46,0,0,1,118.6,111Z"/><path d="M128.18,101.44a8.8,8.8,0,0,0-.92,3.82,7.7,7.7,0,0,0,.28,1.86c.07.32.21.63.3,1a10.82,10.82,0,0,1,.34,1.05,5.16,5.16,0,0,1-.93-.68,5.8,5.8,0,0,1-.72-.9,4.62,4.62,0,0,1-.69-2.28,4.26,4.26,0,0,1,.63-2.32A3.68,3.68,0,0,1,128.18,101.44Z"/><path d="M45.49,173.45a9.84,9.84,0,0,0,1.6,5.22,13.62,13.62,0,0,0,1.78,2.05c.34.32.71.61,1.06.95a14.15,14.15,0,0,1,1.14,1,9.67,9.67,0,0,1-1.48-.36,11.08,11.08,0,0,1-1.39-.67,7.65,7.65,0,0,1-2.29-2.14,6.52,6.52,0,0,1-1-3A5,5,0,0,1,45.49,173.45Z"/><path d="M139.44,147c-.16.93-.33,1.8-.44,2.64a7.8,7.8,0,0,0,0,2.41,3.27,3.27,0,0,0,1,1.87,5.36,5.36,0,0,0,1,.72c.37.23.79.37,1.2.63a4.31,4.31,0,0,1-2.83-.45,3.59,3.59,0,0,1-1.79-2.52,5.53,5.53,0,0,1,.34-2.93A6.49,6.49,0,0,1,139.44,147Z"/><path class="cls-4" d="M483.13,66.37c-12.93.53,1.32,4.11-3.16,9.59s-18.81,3.16-25.54,3.16c-17.81,0-35.06,5-52.79,5-19.92,0-41.23.34-60.91-2.86-18.27-3-35.78-7.26-55.35-5.31-17.65,1.75-34.7,5.2-53.06,4.27-17.19-.86-31.81-8.13-48.87-9.79-29-2.84-88.47,24.67-112.19,3.37,2.87-4.23,5.66-2.68,10.37-3.14C93.86,69.4,96,69.29,105.54,61.19c-10.67,3.75-24.82-4.09-36.93-3.32-11.88.75-22.67,1.48-35.08,1.06C23.42,58.58-7.42,63.05,6.29,79.79c8.12,9.92,26.13,9.41,37.47,8.9,9.54-.44,20.41-3.68,29.51-2.24,10.8,1.7,19.58,6,31,5.43,9.86-.47,19.37-3.3,28.84-5.17a198.4,198.4,0,0,1,30.14-3.34c9.4-.45,18.73-2.25,27.88.77,17.72,5.85,38.43,7.19,57.69,6.14,8.77-.47,16.33-3.29,25-3.72,21.57-1.07,42.54,4.93,63.48,9.1,22.56,4.49,45.87,4.92,68.81,4.72,21.67-.19,43.43-9.47,65.06-5.69,10.68,1.87,20.57,4,31.86,3.56,12.83-.43,40.22-15.74,30.63-24.2C522.46,64.23,502.26,65.59,483.13,66.37Z"/><path class="cls-1" d="M13.84,87c2.93.19,5.84,1.77,8.69,2.26a78.6,78.6,0,0,0,9.55.93,50.58,50.58,0,0,0,9.14-.27c2.81-.4,5.51-1.14,8.43-.93a11,11,0,0,0,1.15,0c-2.57,1.05-3.17,2.82-4,4.92a11.38,11.38,0,0,1-6,6.38c-2.65,1.32-7.05.94-10.06.93-3.4,0-7.37.77-10.1,2.63-1.82,1.24-3.54,3.21-6.1,3.09-3-.14-4.83-3.08-5.49-5.42a12.14,12.14,0,0,1,1-9.35c.92-1.8,2.79-3.41,3.39-5.16"/><path d="M6.23,74.61a55.63,55.63,0,0,1,11.33-8.09A29,29,0,0,1,24.41,64a26.52,26.52,0,0,1,7.43-.54l1.85.19,1.65.23,3.27.44c2.18.28,4.34.51,6.52.68,4.35.36,8.83.32,13.5.6a41.38,41.38,0,0,1-13.41,3.86,46.23,46.23,0,0,1-7,.22c-1.17,0-2.33-.15-3.48-.24L33,69.26l-1.53-.13a33.39,33.39,0,0,0-12.23,1.51C15.07,71.84,10.8,73.59,6.23,74.61Z"/><path d="M75.15,67.89a70.18,70.18,0,0,1-9.11,7,23.11,23.11,0,0,1-5.62,2.45c-.5.14-1,.25-1.53.36L57.32,78c-.52,0-1,.08-1.58.12l-1.53,0a72.8,72.8,0,0,1-11.28-1.53c-3.57-.61-7-1.19-10.82-.49a12.07,12.07,0,0,1,5.17-3,24.21,24.21,0,0,1,5.91-1c3.93-.18,7.67.24,11.11.31a27.6,27.6,0,0,0,9.89-1.58C67.57,69.83,71.22,68.26,75.15,67.89Z"/><path d="M476.66,85.82a83.85,83.85,0,0,0,11.14.23c3.61-.14,7.19-.46,10.7-.94a43.3,43.3,0,0,1,11.63-.66,14.1,14.1,0,0,1,6,2,7,7,0,0,1,2.27,2.39,5.62,5.62,0,0,1,.73,3,7.11,7.11,0,0,0-1.91-1.95A6.53,6.53,0,0,0,515,89a16.41,16.41,0,0,0-5-.09c-1.72.19-3.46.48-5.23.82s-3.56.69-5.54,1a37.79,37.79,0,0,1-11.82-.24A23.63,23.63,0,0,1,476.66,85.82Z"/><path d="M489.42,75.55A24.37,24.37,0,0,0,494,73.27a15.82,15.82,0,0,1,2.55-1.16,10.53,10.53,0,0,1,3-.5,31.43,31.43,0,0,1,5.38.51,21.1,21.1,0,0,0,2.22.24l1,0,1.17,0a22.7,22.7,0,0,0,4.36-.55,37.35,37.35,0,0,0,4.44-1.39,29.66,29.66,0,0,1,5.1-1.61,8.79,8.79,0,0,1,2.9-.11,4.33,4.33,0,0,1,2.55,1.2,6.62,6.62,0,0,0-4.45,1.51c-1.31.89-2.55,1.93-4,3a22.32,22.32,0,0,1-5,2.6,19.47,19.47,0,0,1-2.84.76,25.78,25.78,0,0,1-2.85.3h-1.39c-.5,0-1,0-1.52-.08a20.72,20.72,0,0,1-2.82-.55c-1.76-.48-3.25-1-4.65-1.34a8.71,8.71,0,0,0-2-.28,23.74,23.74,0,0,0-2.4.16A11.64,11.64,0,0,1,489.42,75.55Z"/></g></g></g></svg>